Predator 1987 Ultimate Hunter Edition 1080p D-Z0N3

Encoding Date.......: 28.07.2010                                      
Encoding Type.......: 2 Pass - High@L4.1                              
DXVA Compliant......: Yes                                            
Container...........: Matroska (MKV)                                
Video Encoder.......: x264                                            
Video Aspect Ratio..: 16:9   [1920x1040 pxls]                        
Framerate...........: 23,976 FPS                                      
Audio 1st...........: 1536 Kbps 6 chnls Core DTSHD-MA English        
Audio 2nd...........:  224 Kbps 2 chnls English Director's Comm      
Audio 3rd...........:  224 Kbps 2 chnls Turkish (Ext, Optnl)        
Subtitles...........: Eng SDH, Tur, Pol, Por-BR, Rum, Slv            
File Size...........: 10.9 GB (2.5xDVD5)  (avg bitr. of ~ 12.9 Mbit)  
Notice..............: D-Z0N3 HD                                      
                                                                      
                              Source:                                  
 Predator.Ult.Hunter.Edition.1987.BluRay.1080p.AVC.DTS-HD.MA5.1-CHDBits
 
http://www.imdb.com/title/tt0093773/

Genres:Action | Adventure | Sci-Fi | Thriller 
--------------------------------------------------------------------------------
[img]http://torrent-stats.info/84ae/a23fff84.png[/img]

Storyline
Dutch and his group of commandos are hired by the CIA to rescue downed airmen from guerillas in a Central American jungle. The mission goes well but as they return they find that something is hunting them. Nearly invisible, it blends in with the forest, taking trophies from the bodies of it's victims as it goes along. Occasionally seeing through it's eyes, the audience sees it is an intelligent alien hunter, hunting them for sport, killing them off one at a time. Written by John Vogel <jlvogel@comcast.net>   


Title: Predator

Year: 1987
Runtime: 107 mins
Language: English
Country: USA
All Genres: Action, Adventure, Sci-Fi, Thriller
Director: John McTiernan 
Writing By: Jim Thomas John Thomas 
Produced By: John Davis Lawrence Gordon Beau Marks Laurence Pereira Joel Silver Jim Thomas John Vallone 
Music: Alan Silvestri 
Rating: 7.8
Votes: 0

Cast
Complete credited cast: 
  Arnold Schwarzenegger  ...  Dutch  
  Jesse Ventura  ...  Blain  
  Kevin Peter Hall  ...  The Predator / Helicopter Pilot  
  Bill Duke  ...  Mac  
  Carl Weathers  ...  Dillon  
  Shane Black  ...  Hawkins  
  Sonny Landham  ...  Billy  
  Richard Chaves  ...  Poncho  
  Elpidia Carrillo  ...  Anna  
  R.G. Armstrong  ...  General Phillips 


Format : Matroska 
File size : 10.9 GiB 
Duration : 1h 46mn 
Overall bit rate : 14.6 Mbps 
Encoded date : UTC 2010-07-28 20:18:15 
Writing application : mkvmerge v4.1.1 ('Bouncin' Back') built on Jul 3 2010 22:54:08 
Writing library : libebml v1.0.0 + libmatroska v1.0.0 

Video 
ID : 1 
Format : AVC 
Format/Info : Advanced Video Codec 
Format profile : High@L4.1 
Format settings, CABAC : Yes 
Format settings, ReFrames : 4 frames 
Muxing mode : Container profile=Unknown@4.1 
Codec ID : V_MPEG4/ISO/AVC 
Duration : 1h 46mn 
Bit rate : 12.9 Mbps 
Width : 1 920 pixels 
Height : 1 040 pixels 
Display aspect ratio : 16:9 
Frame rate : 23.976 fps 
Color space : YUV 
Chroma subsampling : 4:2:0 
Bit depth : 8 bits 
Scan type : Progressive 
Bits/(Pixel*Frame) : 0.270 
Stream size : 9.39 GiB (86%) 
Title : D-Z0N3 HD VIDEO @ Predator 1987 1080p D-Z0N3 ~ 12.9 Mbit 
Writing library : x264 core 104 r1677 19df41a 
Encoding settings : cabac=1 / ref=4 / deblock=1:-3:-3 / analyse=0x3:0x113 / me=umh / subme=10 / psy=1 / psy_rd=1.00:0.00 / mixed_ref=0 / me_range=64 / chroma_me=1 / trellis=2 / 8x8dct=1 / cqm=0 / deadzone=21,11 / fast_pskip=0 / chroma_qp_offset=-4 / threads=12 / sliced_threads=0 / nr=0 / decimate=0 / interlaced=0 / constrained_intra=0 / bframes=8 / b_pyramid=2 / b_adapt=2 / b_bias=0 / direct=3 / weightb=1 / open_gop=0 / weightp=2 / keyint=250 / keyint_min=23 / scenecut=40 / intra_refresh=0 / rc_lookahead=50 / rc=2pass / mbtree=0 / bitrate=12910 / ratetol=1.0 / qcomp=0.60 / qpmin=10 / qpmax=51 / qpstep=4 / cplxblur=20.0 / qblur=0.5 / vbv_maxrate=38000 / vbv_bufsize=30000 / ip_ratio=1.40 / pb_ratio=1.30 / aq=1:1.00 / nal_hrd=none 
Language : English 

Audio #1 
ID : 2 
Format : DTS 
Format/Info : Digital Theater Systems 
Codec ID : A_DTS 
Duration : 1h 46mn 
Bit rate mode : Constant 
Bit rate : 1 510 Kbps 
Channel(s) : 6 channels 
Channel positions : Front: L C R, Side: L R, LFE 
Sampling rate : 48.0 KHz 
Bit depth : 24 bits 
Stream size : 1.12 GiB (10%) 
Title : D-Z0N3 HD AUDIO @ 1536 Kbps Core DTSHD-MA 
Language : English 

Audio #2 
ID : 3 
Format : AC-3 
Format/Info : Audio Coding 3 
Mode extension : CM (complete main) 
Codec ID : A_AC3 
Duration : 1h 46mn 
Bit rate mode : Constant 
Bit rate : 224 Kbps 
Channel(s) : 2 channels 
Channel positions : Front: L R 
Sampling rate : 48.0 KHz 
Bit depth : 16 bits 
Stream size : 171 MiB (2%) 
Title : D-Z0N3 HD AUDIO @ 224 Kbps 2.0 Ch English Director's Commentary 
Language : English 

Text #1 
ID : 4 
Format : UTF-8 
Codec ID : S_TEXT/UTF8 
Codec ID/Info : UTF-8 Plain Text 
Title : D-Z0N3 HD SUB @ English SDH 
Language : English 

Text #2 
ID : 5 
Format : UTF-8 
Codec ID : S_TEXT/UTF8 
Codec ID/Info : UTF-8 Plain Text 
Title : D-Z0N3 HD SUB 
Language : Turkish 

Text #3 
ID : 6 
Format : UTF-8 
Codec ID : S_TEXT/UTF8 
Codec ID/Info : UTF-8 Plain Text 
Title : D-Z0N3 HD SUB 
Language : Polish 

Text #4 
ID : 7 
Format : UTF-8 
Codec ID : S_TEXT/UTF8 
Codec ID/Info : UTF-8 Plain Text 
Title : D-Z0N3 HD SUB 
Language : Portuguese 

Text #5 
ID : 8 
Format : UTF-8 
Codec ID : S_TEXT/UTF8 
Codec ID/Info : UTF-8 Plain Text 
Title : D-Z0N3 HD SUB 
Language : Romanian 

Text #6 
ID : 9 
Format : UTF-8 
Codec ID : S_TEXT/UTF8 
Codec ID/Info : UTF-8 Plain Text 
Title : D-Z0N3 HD SUB 
Language : Slovenian 

Menu 
00:00:00.000 : en:The Invaders (Main Titles) 
00:04:04.286 : en:The Professionals 
00:06:29.639 : en:Schaefer's Team 
00:10:32.465 : en:Death In The Jungle 
00:18:21.183 : en:The Watcher 
00:20:21.554 : en:The Rebel Camp 
00:27:52.337 : en:Set Up 
00:31:04.279 : en:The Stalker 
00:34:53.717 : en:The Only Way Out 
00:37:49.601 : en:Something In The Trees 
00:41:00.833 : en:The Living Jungle 
00:46:33.374 : en:Another Kill 
00:53:08.685 : en:There's Something Out There 
01:01:37.402 : en:The Stand 
01:04:08.762 : en:The Demon 
01:08:09.919 : en:Two For The Kill 
01:14:10.363 : en:Billy's Last Stand 
01:15:50.212 : en:Dutch And The Demon 
01:18:27.369 : en:The Alien's Weakness 
01:20:55.809 : en:The Trap And The Trophies 
01:25:09.271 : en:The Challenge 
01:34:31.833 : en:One Ugly 
01:35:49.118 : en:Duel 
01:39:58.659 : en:The Last Laugh 
01:42:56.170 : en:End Titles 


 
http://www.imagebam.com/image/8e3278122481754 
http://www.imagebam.com/image/c07eeb122481832 
http://www.imagebam.com/image/86dcff122481914 
http://www.imagebam.com/image/990a19122481952 
http://www.imagebam.com/image/9f178e122482006 
http://www.imagebam.com/image/315f2d122482059 
http://www.imagebam.com/image/93f62c122482145